<svg width="537" height="772" viewBox="0 0 537 772" fill="none" xmlns="http://www.w3.org/2000/svg">
<ellipse cx="93.137" cy="93.8032" rx="93.137" ry="93.8032" fill="#F1BA26"/>
<ellipse cx="279.41" cy="678.197" rx="93.137" ry="93.8032" fill="#C82525"/>
<path d="M376.626 93.488C377.973 91.8681 380.599 92.5503 381 94.6244L388.559 133.744C388.908 135.548 387.263 137.096 385.486 136.634L352.52 128.068C350.744 127.607 350.047 125.451 351.219 124.042L376.626 93.488Z" fill="#3225C8"/>
<path d="M36.3912 374.687C34.3902 374.063 34.0058 371.397 35.7477 370.225L68.6583 348.082C70.1867 347.054 72.261 347.973 72.5238 349.795L77.419 383.735C77.6818 385.557 75.9528 387.032 74.197 386.484L36.3912 374.687Z" fill="#C82525"/>
<path d="M517.698 541.114C518.384 543.109 516.465 545.014 514.494 544.294L477.292 530.702C475.57 530.073 475.089 527.851 476.393 526.556L500.645 502.485C501.949 501.191 504.148 501.708 504.747 503.451L517.698 541.114Z" fill="#F1BA26"/>
<path d="M120 356C120 245.543 209.543 156 320 156V156C430.457 156 520 245.543 520 356V356C520 466.457 430.457 556 320 556V556C209.543 556 120 466.457 120 356V356Z" fill="#3225C8"/>
</svg>
