<svg width="30" height="30" viewBox="0 0 40 40" fill="none" xmlns="http://www.w3.org/2000/svg">
<rect width="40" height="40" fill="#1E1E1E"/>
<g id="FULLPAGE">
<rect x="-63" y="-23" width="1440" height="4616" rx="10" fill="#F3F3F3"/>
<g id="nav">
<rect id="Rectangle 98" x="-63" y="-23" width="1440" height="86" fill="#F3F3F3"/>
<path id="Vector" d="M2.22222 40C1.59259 40 1.06519 39.68 0.64 39.04C0.213334 38.4022 0 37.6111 0 36.6667C0 35.7222 0.213334 34.9311 0.64 34.2933C1.06519 33.6533 1.59259 33.3333 2.22222 33.3333H37.7778C38.4074 33.3333 38.9348 33.6533 39.36 34.2933C39.7867 34.9311 40 35.7222 40 36.6667C40 37.6111 39.7867 38.4022 39.36 39.04C38.9348 39.68 38.4074 40 37.7778 40H2.22222ZM2.22222 23.3333C1.59259 23.3333 1.06519 23.0133 0.64 22.3733C0.213334 21.7356 0 20.9444 0 20C0 19.0556 0.213334 18.2633 0.64 17.6233C1.06519 16.9856 1.59259 16.6667 2.22222 16.6667H37.7778C38.4074 16.6667 38.9348 16.9856 39.36 17.6233C39.7867 18.2633 40 19.0556 40 20C40 20.9444 39.7867 21.7356 39.36 22.3733C38.9348 23.0133 38.4074 23.3333 37.7778 23.3333H2.22222ZM2.22222 6.66667C1.59259 6.66667 1.06519 6.34778 0.64 5.71C0.213334 5.07 0 4.27778 0 3.33333C0 2.38889 0.213334 1.59667 0.64 0.956667C1.06519 0.318889 1.59259 0 2.22222 0H37.7778C38.4074 0 38.9348 0.318889 39.36 0.956667C39.7867 1.59667 40 2.38889 40 3.33333C40 4.27778 39.7867 5.07 39.36 5.71C38.9348 6.34778 38.4074 6.66667 37.7778 6.66667H2.22222Z" fill="#1D1D1D"/>
</g>
</g>
</svg>
